# xmcd
#
# Track frame offsets: 
#        150
#        10250
#        20777
#        31790
#        44202
#        57565
#        70787
#        81760
#        93137
#        102582
#        115460
#        128910
#        139915
#        152637
#        165095
#        176832
#        186740
#        202287
#        213640
#        230250
#
# Disc length: 3244 seconds
#
# Revision: 0
# Processed by: cddbd v1.5.2PL0 Copyright (c) Steve Scherf et al.
# Submitted via: ExactAudioCopy v1.3
#
DISCID=290caa14
DTITLE=Charley Pride - The Very Best Of
DYEAR=1900
DGENRE=Country
TTITLE0=Just Between You And Me
TTITLE1=I Know One
TTITLE2=Does My Ring Hurt You'r Finger
TTITLE3=Kaw-Liga
TTITLE4=All I Have To Offer You is Me
TTITLE5=I Am so Afraid Of Losing You Again
TTITLE6=Is Anybody Going To San Antone
TTITLE7=I'm Just Me
TTITLE8=Kiss An Angel Good Morning
TTITLE9=She's To Good To Be True
TTITLE10=Amazing Love
TTITLE11=Mississippi Coton Picking Delta Town
TTITLE12=Hope You'r Feelin Me
TTITLE13=Crystal Chandeliers
TTITLE14=She's Just An old love
TTITLE15=Someone Loves You Honey
TTITLE16=Burgers And Fries
TTITLE17=Missin You
TTITLE18=Roll On Mississippi
TTITLE19=Mountains Of love
EXTD=
EXTT0=
EXTT1=
EXTT2=
EXTT3=
EXTT4=
EXTT5=
EXTT6=
EXTT7=
EXTT8=
EXTT9=
EXTT10=
EXTT11=
EXTT12=
EXTT13=
EXTT14=
EXTT15=
EXTT16=
EXTT17=
EXTT18=
EXTT19=
PLAYORDER=
